#N canvas 0 23 1440 855 12;
#X obj 272 598 inlet;
#X obj 263 454 noise~;
#X obj 291 555 lop~;
#X floatatom 315 483 5 0 0 0 - - -;
#X obj 291 520 hip~;
#X obj 278 686 *~;
#X floatatom 377 461 5 0 0 0 - - -;
#X obj 377 481 t b f;
#X obj 354 517 + 500;
#N canvas 0 23 811 499 multi_env 0;
#X obj 127 101 inlet;
#X floatatom 427 320 5 0 0 1 Decay - -;
#N canvas 0 23 450 300 env2 0;
#X obj 37 37 inlet;
#X obj 38 155 line~;
#X obj 29 204 *~;
#X msg 37 105 0;
#X obj 37 126 pack 0 200;
#X obj 37 84 del 2;
#X obj 37 63 t b b, f 14;
#X obj 29 225 outlet~;
#X obj 187 61 inlet;
#X msg 121 127 1 0;
#X connect 0 0 6 0;
#X connect 1 0 2 0;
#X connect 1 0 2 1;
#X connect 2 0 7 0;
#X connect 3 0 4 0;
#X connect 4 0 1 0;
#X connect 5 0 3 0;
#X connect 6 0 5 0;
#X connect 6 1 9 0;
#X connect 8 0 4 1;
#X connect 9 0 1 0;
#X restore 123 355 pd env2;
#N canvas 0 23 450 300 env2 0;
#X obj 37 37 inlet;
#X obj 38 155 line~;
#X obj 29 204 *~;
#X msg 37 105 0;
#X obj 37 126 pack 0 200;
#X obj 37 84 del 2;
#X obj 37 63 t b b, f 14;
#X obj 29 225 outlet~;
#X obj 187 61 inlet;
#X msg 120 128 1 0;
#X connect 0 0 6 0;
#X connect 1 0 2 0;
#X connect 1 0 2 1;
#X connect 2 0 7 0;
#X connect 3 0 4 0;
#X connect 4 0 1 0;
#X connect 5 0 3 0;
#X connect 6 0 5 0;
#X connect 6 1 9 0;
#X connect 8 0 4 1;
#X connect 9 0 1 0;
#X restore 179 354 pd env2;
#N canvas 0 23 450 300 env2 0;
#X obj 37 37 inlet;
#X obj 38 155 line~;
#X obj 29 204 *~;
#X msg 37 105 0;
#X obj 37 126 pack 0 200;
#X obj 37 84 del 2;
#X obj 37 63 t b b, f 14;
#X obj 29 225 outlet~;
#X obj 187 61 inlet;
#X msg 120 128 1 0;
#X connect 0 0 6 0;
#X connect 1 0 2 0;
#X connect 1 0 2 1;
#X connect 2 0 7 0;
#X connect 3 0 4 0;
#X connect 4 0 1 0;
#X connect 5 0 3 0;
#X connect 6 0 5 0;
#X connect 6 1 9 0;
#X connect 8 0 4 1;
#X connect 9 0 1 0;
#X restore 235 355 pd env2;
#N canvas 0 23 450 300 env2 0;
#X obj 37 37 inlet;
#X obj 38 155 line~;
#X obj 29 204 *~;
#X msg 37 105 0;
#X obj 37 126 pack 0 200;
#X obj 37 84 del 2;
#X obj 37 63 t b b, f 14;
#X obj 29 225 outlet~;
#X obj 187 61 inlet;
#X msg 120 128 1 0;
#X connect 0 0 6 0;
#X connect 1 0 2 0;
#X connect 1 0 2 1;
#X connect 2 0 7 0;
#X connect 3 0 4 0;
#X connect 4 0 1 0;
#X connect 5 0 3 0;
#X connect 6 0 5 0;
#X connect 6 1 9 0;
#X connect 8 0 4 1;
#X connect 9 0 1 0;
#X restore 309 353 pd env2;
#X obj 182 220 del 40;
#X obj 238 277 del 40;
#X obj 308 320 del 40;
#X obj 120 417 *~ 0.25;
#X obj 125 377 *~;
#X obj 177 375 *~;
#X obj 430 349 * 5;
#X obj 524 323 t b f;
#X obj 235 378 *~;
#X obj 308 381 *~;
#X obj 372 78 * 5;
#X obj 120 438 outlet~;
#X obj 372 52 inlet;
#X obj 523 287 inlet;
#X text 378 30 delay;
#X text 562 304 decay;
#X text 428 370 final delay is stretched out by a factor of [decay]
;
#X connect 0 0 6 0;
#X connect 0 0 2 0;
#X connect 1 0 2 1;
#X connect 1 0 3 1;
#X connect 1 0 4 1;
#X connect 1 0 12 0;
#X connect 2 0 10 0;
#X connect 2 0 10 1;
#X connect 3 0 11 0;
#X connect 3 0 11 1;
#X connect 4 0 14 0;
#X connect 4 0 14 1;
#X connect 5 0 15 0;
#X connect 5 0 15 1;
#X connect 6 0 7 0;
#X connect 6 0 3 0;
#X connect 7 0 8 0;
#X connect 7 0 4 0;
#X connect 8 0 5 0;
#X connect 9 0 17 0;
#X connect 10 0 9 0;
#X connect 11 0 9 0;
#X connect 12 0 5 1;
#X connect 13 0 12 0;
#X connect 13 1 12 1;
#X connect 14 0 9 0;
#X connect 15 0 9 0;
#X connect 16 0 1 0;
#X connect 18 0 16 0;
#X connect 18 0 6 1;
#X connect 18 0 7 1;
#X connect 18 0 8 1;
#X connect 19 0 13 0;
#X restore 271 626 pd multi_env;
#X text 374 434 width;
#X text 311 457 cutoff;
#X text 236 595 trig;
#X obj 273 746 s~ clap;
#X obj 380 152 t b;
#X obj 322 194 i 750;
#X obj 365 194 i 1000;
#X obj 414 194 i 11;
#X obj 449 194 f 3.5;
#X floatatom 453 512 5 0 0 2 delay - -;
#X obj 531 539 f 3.5;
#X obj 530 502 t f b;
#X text 541 475 decay;
#X obj 391 78 t b;
#X obj 324 121 i 1250;
#X obj 376 120 i 500;
#X obj 425 120 i 14;
#X obj 460 120 f 4.5;
#X obj 391 46 loadbang;
#X obj 384 241 t b;
#X obj 453 283 f 3.5;
#X obj 326 283 i 800;
#X obj 370 283 i 1500;
#X obj 419 284 i 8;
#X obj 386 318 t b;
#X obj 324 361 i 1600;
#X obj 372 360 i 600;
#X obj 421 361 i 18;
#X obj 455 360 f 5.5;
#X obj 119 106 hradio 15 1 0 4 empty empty Clap -14 0 0 10 -228856
-1 -1 3;
#X obj 118 139 select 0 1 2 3;
#X obj 211 106 hsl 80 15 0 1 0 0 empty empty empty -2 -8 0 10 -232576
-1 -1 2000 1;
#X obj 288 715 *~ 0.5;
#X obj 257 47 f 0.5;
#X connect 0 0 9 0;
#X connect 1 0 4 0;
#X connect 2 0 5 1;
#X connect 3 0 4 1;
#X connect 3 0 8 0;
#X connect 4 0 2 0;
#X connect 5 0 42 0;
#X connect 6 0 7 0;
#X connect 7 0 8 0;
#X connect 7 1 8 1;
#X connect 8 0 2 1;
#X connect 9 0 5 0;
#X connect 14 0 15 0;
#X connect 14 0 16 0;
#X connect 14 0 17 0;
#X connect 14 0 18 0;
#X connect 15 0 3 0;
#X connect 16 0 6 0;
#X connect 17 0 19 0;
#X connect 18 0 21 0;
#X connect 19 0 9 1;
#X connect 20 0 9 2;
#X connect 21 0 20 1;
#X connect 21 1 20 0;
#X connect 23 0 24 0;
#X connect 23 0 25 0;
#X connect 23 0 26 0;
#X connect 23 0 27 0;
#X connect 24 0 3 0;
#X connect 25 0 6 0;
#X connect 26 0 19 0;
#X connect 27 0 21 0;
#X connect 28 0 23 0;
#X connect 28 0 43 0;
#X connect 29 0 30 0;
#X connect 29 0 31 0;
#X connect 29 0 32 0;
#X connect 29 0 33 0;
#X connect 30 0 21 0;
#X connect 31 0 3 0;
#X connect 32 0 6 0;
#X connect 33 0 19 0;
#X connect 34 0 35 0;
#X connect 34 0 36 0;
#X connect 34 0 37 0;
#X connect 34 0 38 0;
#X connect 35 0 3 0;
#X connect 36 0 6 0;
#X connect 37 0 19 0;
#X connect 38 0 21 0;
#X connect 39 0 40 0;
#X connect 40 0 23 0;
#X connect 40 1 14 0;
#X connect 40 2 29 0;
#X connect 40 3 34 0;
#X connect 41 0 42 1;
#X connect 42 0 13 0;
#X connect 43 0 41 0;
#X coords 0 -1 1 1 200 25 2 100 100;
