#N canvas 0 23 450 300 12;
#X obj 79 265 inlet;
#X obj 70 121 noise~;
#X obj 210 257 inlet;
#X obj 79 385 outlet~;
#X obj 98 222 lop~;
#X floatatom 122 150 5 0 0 0 - - -;
#X obj 98 187 hip~;
#X obj 85 353 *~;
#X floatatom 184 128 5 0 0 0 - - -;
#X obj 184 148 t b f;
#X obj 161 184 + 500;
#N canvas 0 23 811 499 multi_env 0;
#X obj 127 101 inlet;
#X floatatom 427 320 5 0 0 1 Decay - -;
#N canvas 0 23 450 300 env2 0;
#X obj 37 37 inlet;
#X obj 38 155 line~;
#X obj 29 204 *~;
#X msg 37 105 0;
#X obj 37 126 pack 0 200;
#X obj 37 84 del 2;
#X obj 37 63 t b b, f 14;
#X obj 29 225 outlet~;
#X obj 187 61 inlet;
#X msg 121 127 1 0;
#X connect 0 0 6 0;
#X connect 1 0 2 0;
#X connect 1 0 2 1;
#X connect 2 0 7 0;
#X connect 3 0 4 0;
#X connect 4 0 1 0;
#X connect 5 0 3 0;
#X connect 6 0 5 0;
#X connect 6 1 9 0;
#X connect 8 0 4 1;
#X connect 9 0 1 0;
#X restore 123 355 pd env2;
#N canvas 0 23 450 300 env2 0;
#X obj 37 37 inlet;
#X obj 38 155 line~;
#X obj 29 204 *~;
#X msg 37 105 0;
#X obj 37 126 pack 0 200;
#X obj 37 84 del 2;
#X obj 37 63 t b b, f 14;
#X obj 29 225 outlet~;
#X obj 187 61 inlet;
#X msg 120 128 1 0;
#X connect 0 0 6 0;
#X connect 1 0 2 0;
#X connect 1 0 2 1;
#X connect 2 0 7 0;
#X connect 3 0 4 0;
#X connect 4 0 1 0;
#X connect 5 0 3 0;
#X connect 6 0 5 0;
#X connect 6 1 9 0;
#X connect 8 0 4 1;
#X connect 9 0 1 0;
#X restore 179 354 pd env2;
#N canvas 0 23 450 300 env2 0;
#X obj 37 37 inlet;
#X obj 38 155 line~;
#X obj 29 204 *~;
#X msg 37 105 0;
#X obj 37 126 pack 0 200;
#X obj 37 84 del 2;
#X obj 37 63 t b b, f 14;
#X obj 29 225 outlet~;
#X obj 187 61 inlet;
#X msg 120 128 1 0;
#X connect 0 0 6 0;
#X connect 1 0 2 0;
#X connect 1 0 2 1;
#X connect 2 0 7 0;
#X connect 3 0 4 0;
#X connect 4 0 1 0;
#X connect 5 0 3 0;
#X connect 6 0 5 0;
#X connect 6 1 9 0;
#X connect 8 0 4 1;
#X connect 9 0 1 0;
#X restore 235 355 pd env2;
#N canvas 0 23 450 300 env2 0;
#X obj 37 37 inlet;
#X obj 38 155 line~;
#X obj 29 204 *~;
#X msg 37 105 0;
#X obj 37 126 pack 0 200;
#X obj 37 84 del 2;
#X obj 37 63 t b b, f 14;
#X obj 29 225 outlet~;
#X obj 187 61 inlet;
#X msg 120 128 1 0;
#X connect 0 0 6 0;
#X connect 1 0 2 0;
#X connect 1 0 2 1;
#X connect 2 0 7 0;
#X connect 3 0 4 0;
#X connect 4 0 1 0;
#X connect 5 0 3 0;
#X connect 6 0 5 0;
#X connect 6 1 9 0;
#X connect 8 0 4 1;
#X connect 9 0 1 0;
#X restore 309 353 pd env2;
#X obj 182 220 del 40;
#X obj 238 277 del 40;
#X obj 308 320 del 40;
#X obj 120 417 *~ 0.25;
#X obj 125 377 *~;
#X obj 177 375 *~;
#X obj 430 349 * 5;
#X obj 524 323 t b f;
#X obj 235 378 *~;
#X obj 308 381 *~;
#X obj 372 78 * 5;
#X obj 120 438 outlet~;
#X obj 372 52 inlet;
#X obj 523 287 inlet;
#X text 378 30 delay;
#X text 562 304 decay;
#X text 428 370 final delay is stretched out by a factor of [decay]
;
#X connect 0 0 6 0;
#X connect 0 0 2 0;
#X connect 1 0 2 1;
#X connect 1 0 3 1;
#X connect 1 0 4 1;
#X connect 1 0 12 0;
#X connect 2 0 10 0;
#X connect 2 0 10 1;
#X connect 3 0 11 0;
#X connect 3 0 11 1;
#X connect 4 0 14 0;
#X connect 4 0 14 1;
#X connect 5 0 15 0;
#X connect 5 0 15 1;
#X connect 6 0 7 0;
#X connect 6 0 3 0;
#X connect 7 0 8 0;
#X connect 7 0 4 0;
#X connect 8 0 5 0;
#X connect 9 0 17 0;
#X connect 10 0 9 0;
#X connect 11 0 9 0;
#X connect 12 0 5 1;
#X connect 13 0 12 0;
#X connect 13 1 12 1;
#X connect 14 0 9 0;
#X connect 15 0 9 0;
#X connect 16 0 1 0;
#X connect 18 0 16 0;
#X connect 18 0 6 1;
#X connect 18 0 7 1;
#X connect 18 0 8 1;
#X connect 19 0 13 0;
#X restore 78 293 pd multi_env;
#X obj 259 259 inlet;
#X obj 120 80 inlet;
#X obj 169 104 inlet;
#X text 299 262 decay;
#X text 206 237 delay;
#X text 180 89 width;
#X text 119 57 cutoff;
#X text 43 262 trig;
#X connect 0 0 11 0;
#X connect 1 0 6 0;
#X connect 2 0 11 1;
#X connect 4 0 7 1;
#X connect 5 0 6 1;
#X connect 5 0 10 0;
#X connect 6 0 4 0;
#X connect 7 0 3 0;
#X connect 8 0 9 0;
#X connect 9 0 10 0;
#X connect 9 1 10 1;
#X connect 10 0 4 1;
#X connect 11 0 7 0;
#X connect 12 0 11 2;
#X connect 13 0 5 0;
#X connect 14 0 8 0;
