#N canvas 0 24 1440 855 12;
#X obj 453 4 seqclock;
#X obj 216 500 mtof;
#X obj 193 606 osc~;
#X obj 510 809 dac~;
#X obj 512 746 +~;
#X obj 512 170 midinotesequencer;
#X obj 524 366 miditriggersequence;
#X obj 539 38 miditriggersequence;
#X obj 450 38 kicksynth;
#X obj 198 633 *~ 0.5;
#X obj 462 249 vradio 15 1 0 4 empty empty empty 0 -8 0 10 -262144
-1 -1 2;
#X floatatom 296 436 5 0 0 0 - - -;
#X obj 156 454 * 12;
#X obj 133 494 + 0;
#X obj 478 411 vsl 15 40 0 0.3 0 0 empty empty empty 0 -9 0 10 -262144
-1 -1 0 1;
#X obj 546 418 vsl 15 40 0 0.5 0 0 empty empty empty 0 -9 0 10 -262144
-1 -1 0 1;
#X obj 539 64 miditriggersequence;
#X obj 450 65 cymbolsynth;
#X obj 539 90 miditriggersequence;
#X obj 450 92 clapsynth;
#X obj 1334 36 bng 15 250 50 0 empty empty empty 17 7 0 10 -262144
-1 -1;
#X obj -8 146 r tr808cp_cutoff;
#X obj 114 147 r tr808cp_width;
#X obj -3 170 r tr808cp_delay;
#X obj 109 169 r tr808cp_decay;
#X obj 204 26 r interval_ms;
#X obj 207 101 s r_tempoms;
#X obj 1 48 r kick_decay;
#X obj 92 45 r kick_pitch;
#X obj -2 72 r kick_filter;
#X obj 97 71 r kick_sine;
#X obj 1237 41 loadbang;
#X obj 290 144 s~ drummix;
#X obj 280 698 r~ drummix;
#X text 837 14 drums;
#X text 830 146 notes;
#X text 818 344 trigger;
#X obj 297 322 expr 4 - $i1;
#X obj 296 196 r octave;
#X text 456 226 octave;
#X obj 298 221 expr 4 - $i1;
#X obj 198 572 *~ 4;
#X obj 219 403 s notetrig;
#X text 454 389 sine vol;
#X msg 52 607 \; hh_decay 70 \; hh_pitch 500 \;;
#X msg 51 662 \; hh_decay 170 \; hh_pitch 200 \;;
#X msg 49 719 \; hh_decay 750 \; hh_pitch 450 \;;
#X obj 1 106 r hh_decay;
#X obj 84 105 r hh_pitch;
#X msg 1236 74 \; tr808cp_cutoff 850 \; tr808cp_width 690 \; tr808cp_delay
9.5 \; tr808cp_decay 8 \; interval_ms 110 \; \; kick_decay 450 \; kick_pitch
0.25 \; kick_filter 0.5 \; kick_sine 1 \; hh_decay 250 \; hh_pitch
250 \; octave 2 \;;
#X obj 479 492 vradio 15 1 0 3 empty empty empty 0 -8 0 10 -262144
-1 -1 1;
#X obj 224 544 expr 3 ^ $i1;
#X text 446 470 sine pitch;
#X obj 450 119 synsnare;
#X obj 539 116 miditriggersequence;
#X obj 569 502 widesquareosc;
#X obj 508 702 *~ 0.5;
#X obj 545 515 vsl 15 40 0 0.5 0 0 empty empty empty 0 -9 0 10 -262144
-1 -1 0 1;
#X obj 81 535 s mainfreq;
#X obj 439 702 *~ 0.5;
#X obj 567 419 widephasorosc;
#X text 588 472 sqr;
#X obj 514 773 *~;
#X obj 1051 423 simpleadenvctrl~;
#X obj 336 780 *~;
#X obj 741 446 vsl 15 128 0 0.5 0 0 empty empty empty 0 -9 0 10 -262144
-1 -1 0 1;
#X text 540 390 saw;
#X obj 592 675 noise~;
#X obj 591 700 *~ 0.5;
#X obj 696 522 vsl 15 40 0 0.5 0 0 empty empty empty 0 -9 0 10 -262144
-1 -1 0 1;
#X obj 793 419 simplefilterctrl~;
#X text 728 418 drums;
#X text 677 499 noise;
#X text 900 397 VCF;
#X text 1096 393 VCA;
#X connect 0 0 26 0;
#X connect 1 0 41 0;
#X connect 1 0 58 0;
#X connect 2 0 9 0;
#X connect 4 0 62 0;
#X connect 5 0 13 0;
#X connect 6 0 42 0;
#X connect 7 0 8 0;
#X connect 8 0 32 0;
#X connect 9 0 4 0;
#X connect 10 0 37 0;
#X connect 11 0 12 0;
#X connect 12 0 13 1;
#X connect 13 0 1 0;
#X connect 14 0 9 1;
#X connect 15 0 59 1;
#X connect 16 0 17 0;
#X connect 17 0 32 0;
#X connect 18 0 19 0;
#X connect 19 0 32 0;
#X connect 20 0 49 0;
#X connect 21 0 19 1;
#X connect 22 0 19 2;
#X connect 23 0 19 3;
#X connect 24 0 19 4;
#X connect 25 0 0 0;
#X connect 27 0 8 1;
#X connect 28 0 8 2;
#X connect 29 0 8 3;
#X connect 30 0 8 4;
#X connect 31 0 49 0;
#X connect 33 0 64 0;
#X connect 37 0 11 0;
#X connect 38 0 40 0;
#X connect 40 0 10 0;
#X connect 41 0 2 0;
#X connect 47 0 17 1;
#X connect 48 0 17 2;
#X connect 50 0 51 0;
#X connect 51 0 41 1;
#X connect 53 0 32 0;
#X connect 54 0 53 0;
#X connect 55 0 56 0;
#X connect 56 0 4 0;
#X connect 57 0 56 1;
#X connect 59 0 4 0;
#X connect 60 0 59 0;
#X connect 62 0 70 0;
#X connect 63 0 62 1;
#X connect 64 0 3 0;
#X connect 64 0 3 1;
#X connect 65 0 64 1;
#X connect 67 0 68 0;
#X connect 68 0 4 0;
#X connect 69 0 68 1;
#X connect 70 0 3 0;
#X connect 70 0 3 1;
#X coords 0 -1 1 1 750 650 1 445 0;
