#N canvas 0 23 1440 855 12;
#X obj 453 3 seqclock;
#X obj 347 488 mtof;
#X obj 435 816 dac~;
#X obj 332 609 +~;
#X obj 544 227 midinotesequencer;
#X obj 559 419 miditriggersequence;
#X obj 568 5 miditriggersequence;
#X obj 569 27 kicksynth;
#X obj 454 242 vradio 15 1 0 4 octctrlout octin Octave 0 -8 0 10 -262144
-1 -1 2;
#X obj 371 420 * 12;
#X obj 348 460 + 0;
#X obj 568 56 miditriggersequence;
#X obj 568 78 cymbolsynth;
#X obj 567 109 miditriggersequence;
#X obj 568 132 clapsynth;
#X obj 1334 36 bng 15 250 50 0 empty empty empty 17 7 0 10 -262144
-1 -1;
#X obj 1237 41 loadbang;
#X obj 127 342 s~ drummix;
#X obj 459 715 r~ drummix;
#X text 827 398 trigger;
#X obj 346 212 r octave;
#X obj 346 237 expr 4 - $i1;
#X obj 219 403 s notetrig;
#X obj 569 189 synsnare;
#X obj 567 164 miditriggersequence;
#X obj 458 537 widesquareosc;
#X obj 345 517 s mainfreq;
#X obj 597 453 widephasorosc;
#X obj 334 636 *~;
#X obj 1060 477 simpleadenvctrl~;
#X obj 513 752 *~;
#X obj 753 532 vsl 15 128 0 0.5 0 0 drumvolctrl drumvol Drum_Vol -11
-9 0 10 -262144 -1 -1 8800 1;
#X obj 20 678 noise~;
#X obj 649 553 vsl 15 40 0 0.25 0 0 noisevolctrl noisevol NoiseVol
-12 -9 0 10 -262144 -1 -1 700 1;
#X obj 802 473 simplefilterctrl~;
#X text 909 451 VCF;
#X text 1105 447 VCA;
#X obj 19 571 r~ sawout;
#X obj 95 570 r sawvolctrl;
#X obj 95 623 r sqrvolctrl;
#X obj 22 625 r~ sqrout;
#X obj 322 661 s~ vcfin;
#X obj 349 704 r~ vcfout;
#X obj 71 678 r noisevolctrl;
#X obj 364 608 r~ vcaenv;
#X obj 1061 684 s~ vcaenv;
#X obj 1164 707 simplescope;
#X obj 536 715 r drumvolctrl;
#X obj 70 596 *~ 0.75;
#X obj 68 650 *~ 0.75;
#X obj 59 703 *~ 0.75;
#X obj 1248 627 r~ vcfout;
#X obj 346 262 s octin;
#X obj 346 287 r octctrlout;
#X obj 8 254 r~ kick;
#X obj 72 253 r~ cymbol;
#X obj 152 253 r~ clap;
#X obj 215 252 r~ snare;
#X obj 67 530 *~ 0 75;
#X obj 17 504 r~ sineout;
#X obj 94 504 r sinvolctrl;
#X obj 457 453 sineosc;
#X obj 368 749 +~;
#X msg 1241 116 \; interval_ms 110 \; \; octave 2 \; sinevol 0 \; sawvol
0.25 \; squarevol 0.8 \; noisevol 0.01 \; drumvol 0.25 \; \; vcffreq
15 \; vcfres 5 \; \;;
#X obj 346 312 expr 4 - $i1;
#X connect 1 0 26 0;
#X connect 3 0 28 0;
#X connect 4 0 10 0;
#X connect 5 0 22 0;
#X connect 6 0 7 0;
#X connect 9 0 10 1;
#X connect 10 0 1 0;
#X connect 11 0 12 0;
#X connect 13 0 14 0;
#X connect 15 0 63 0;
#X connect 16 0 63 0;
#X connect 18 0 30 0;
#X connect 20 0 21 0;
#X connect 21 0 52 0;
#X connect 24 0 23 0;
#X connect 28 0 41 0;
#X connect 29 0 45 0;
#X connect 30 0 2 0;
#X connect 30 0 2 1;
#X connect 32 0 50 0;
#X connect 37 0 48 0;
#X connect 38 0 48 1;
#X connect 39 0 49 1;
#X connect 40 0 49 0;
#X connect 42 0 62 0;
#X connect 43 0 50 1;
#X connect 44 0 28 1;
#X connect 47 0 30 1;
#X connect 48 0 3 0;
#X connect 49 0 3 0;
#X connect 50 0 3 0;
#X connect 51 0 46 0;
#X connect 53 0 64 0;
#X connect 54 0 17 0;
#X connect 55 0 17 0;
#X connect 56 0 17 0;
#X connect 57 0 17 0;
#X connect 58 0 3 0;
#X connect 59 0 58 0;
#X connect 60 0 58 1;
#X connect 62 0 2 0;
#X connect 62 0 2 1;
#X connect 64 0 9 0;
#X coords 0 -1 1 1 780 680 1 445 0;
