#N canvas 474 72 828 662 12;
#X obj 213 315 noise~;
#X floatatom 462 364 5 0 0 0 - - -;
#N canvas 0 23 858 387 six_pulse_oscs 0;
#X obj 37 37 inlet;
#X obj 26 156 phasor~;
#X obj 26 177 expr~ $v1 > 0.55;
#X obj 26 232 *~ 0.9;
#X obj 130 121 * 1.342;
#X obj 131 156 phasor~;
#X obj 131 177 expr~ $v1 > 0.55;
#X obj 235 156 phasor~;
#X obj 235 177 expr~ $v1 > 0.55;
#X obj 340 156 phasor~;
#X obj 340 177 expr~ $v1 > 0.55;
#X obj 444 156 phasor~;
#X obj 444 177 expr~ $v1 > 0.55;
#X obj 549 156 phasor~;
#X obj 549 177 expr~ $v1 > 0.55;
#X obj 234 123 * 1.2312;
#X obj 341 121 * 1.6532;
#X obj 444 122 * 1.9523;
#X obj 548 120 * 2.1523;
#X obj 26 253 outlet~;
#X connect 0 0 4 0;
#X connect 0 0 18 0;
#X connect 0 0 17 0;
#X connect 0 0 16 0;
#X connect 0 0 15 0;
#X connect 0 0 1 0;
#X connect 1 0 2 0;
#X connect 2 0 3 0;
#X connect 3 0 19 0;
#X connect 4 0 5 0;
#X connect 5 0 6 0;
#X connect 6 0 3 0;
#X connect 7 0 8 0;
#X connect 8 0 3 0;
#X connect 9 0 10 0;
#X connect 10 0 3 0;
#X connect 11 0 12 0;
#X connect 12 0 3 0;
#X connect 13 0 14 0;
#X connect 14 0 3 0;
#X connect 15 0 7 0;
#X connect 16 0 9 0;
#X connect 17 0 11 0;
#X connect 18 0 13 0;
#X restore 462 384 pd six_pulse_oscs;
#X obj 213 517 *~;
#X floatatom 425 318 5 0 0 0 - - -;
#X obj 380 325 bng 15 250 50 0 empty empty empty 17 7 0 10 -262144
-1 -1;
#X obj 213 376 *~;
#N canvas 0 23 305 203 vol_env 0;
#X obj 74 76 f 250;
#X obj 72 43 inlet;
#X obj 128 38 inlet;
#X obj 76 126 vline~;
#X obj 76 147 outlet~;
#X msg 76 105 1 2 \, 0.4 \$1 2 \, 0 \$1 \$1;
#X connect 0 0 5 0;
#X connect 1 0 0 0;
#X connect 2 0 0 1;
#X connect 3 0 4 0;
#X connect 5 0 3 0;
#X restore 231 493 pd vol_env;
#N canvas 0 23 305 203 noise_env 0;
#X obj 72 43 inlet;
#X obj 128 38 inlet;
#X obj 68 141 line~;
#X msg 69 117 1 \, 0.6 \$1;
#X obj 87 72 f 250;
#X obj 87 93 * 0.5;
#X obj 71 171 outlet~;
#X connect 0 0 4 0;
#X connect 1 0 4 1;
#X connect 2 0 6 0;
#X connect 3 0 2 0;
#X connect 4 0 5 0;
#X connect 5 0 3 0;
#X restore 250 361 pd noise_env;
#X obj 211 458 freeverb~;
#X obj 245 532 delread~ \$0-del 5;
#X obj 83 555 delwrite~ \$0-del 10;
#N canvas 0 23 450 300 filters 0;
#X obj 36 37 inlet~;
#X obj 43 248 biquad~ 1.86507 -0.892661 0.894294 -1.78859 0.894294
;
#X obj 38 124 biquad~ 0.88843 -0.568945 0.614344 -1.22869 0.614344
;
#X obj 42 201 biquad~ 0.88843 -0.568945 0.614344 -1.22869 0.614344
;
#X obj 42 81 biquad~ 0.638282 -0.176456 0.134544 0.269087 0.134544
;
#X text 214 106 6800Hz resonant hipass \, Q=1.5;
#X text 210 53 7000Hz resonant lowpass \, Q=0.6;
#X text 220 182 6800Hz resonant hipass \, Q=1.5;
#X text 228 230 1200Hz resonant hipass \, Q=1.5;
#X obj 43 269 outlet~;
#X connect 0 0 4 0;
#X connect 1 0 9 0;
#X connect 2 0 3 0;
#X connect 3 0 1 0;
#X connect 4 0 2 0;
#X restore 213 413 pd filters;
#X obj 382 297 inlet;
#X text 346 298 trig;
#X obj 219 600 *~ 0.5;
#X obj 462 405 *~ 1;
#X obj 510 342 loadbang;
#X msg 510 363 220;
#X obj 134 143 select 0 1 2 3;
#X obj 252 216 i 70;
#X obj 288 216 i 500;
#X obj 374 215 i 170;
#X obj 416 215 i 200;
#X obj 486 211 i 750;
#X obj 528 212 i 450;
#X obj 586 213 250;
#X obj 610 213 250;
#X obj 123 107 hradio 15 1 0 4 empty empty Hat -20 0 0 10 -228856 -1
-1 3;
#X obj 320 59 loadbang;
#X obj 210 632 s~ cymbol;
#X obj 211 106 hsl 80 15 0 1 0 0 empty empty empty -2 -8 0 10 -232576
-1 -1 2200 1;
#X obj 274 45 i 0.5;
#X connect 0 0 6 0;
#X connect 1 0 2 0;
#X connect 2 0 16 0;
#X connect 3 0 11 0;
#X connect 3 0 15 0;
#X connect 4 0 7 1;
#X connect 4 0 8 1;
#X connect 5 0 7 0;
#X connect 5 0 8 0;
#X connect 6 0 12 0;
#X connect 7 0 3 1;
#X connect 8 0 6 1;
#X connect 9 0 3 0;
#X connect 10 0 15 0;
#X connect 12 0 9 0;
#X connect 13 0 5 0;
#X connect 15 0 30 0;
#X connect 16 0 12 0;
#X connect 17 0 18 0;
#X connect 18 0 1 0;
#X connect 19 0 20 0;
#X connect 19 0 21 0;
#X connect 19 1 22 0;
#X connect 19 1 23 0;
#X connect 19 2 24 0;
#X connect 19 2 25 0;
#X connect 19 3 26 0;
#X connect 19 3 27 0;
#X connect 20 0 4 0;
#X connect 21 0 1 0;
#X connect 22 0 4 0;
#X connect 23 0 1 0;
#X connect 24 0 4 0;
#X connect 25 0 1 0;
#X connect 26 0 4 0;
#X connect 27 0 1 0;
#X connect 28 0 19 0;
#X connect 29 0 20 0;
#X connect 29 0 21 0;
#X connect 29 0 32 0;
#X connect 31 0 15 1;
#X connect 32 0 31 0;
#X coords 0 -1 1 1 200 25 2 100 100;
