#N canvas 0 23 809 710 12;
#X floatatom 267 137 5 0 0 0 - - -;
#X text 270 197 fDec = 250;
#X floatatom 292 356 5 0 0 0 - - -;
#X text 327 360 pScale = 1;
#X obj 233 401 *~ 1;
#X obj 233 422 phasor~;
#X obj 214 107 bng 15 250 50 0 empty empty empty 17 7 0 10 -262144
-1 -1;
#X obj 233 442 expr~ if ($v1 > 0.5 \, 0 \, 1);
#X obj 265 471 noise~;
#X floatatom 450 371 5 0 0 0 - - -;
#X obj 339 413 *~ 1.5;
#X obj 236 514 vcf~ 0.5;
#X obj 199 625 *~;
#X obj 357 535 osc~;
#X floatatom 488 471 5 0 0 0 - - -;
#X obj 356 504 *~ 1;
#X obj 221 160 f 250;
#X obj 210 46 inlet;
#X text 204 25 trig;
#X obj 265 115 inlet;
#X text 265 93 decay time;
#X obj 292 325 inlet;
#X text 290 305 pitchScale;
#X text 432 322 filterScale;
#X obj 432 336 inlet;
#X text 453 448 sineVol;
#X obj 199 646 outlet~;
#X obj 500 447 inlet;
#N canvas 0 23 450 300 vol_env 0;
#X obj 125 167 vline~;
#X obj 125 188 *~;
#X msg 115 115 0.5 \, 1 5 \, 0.5 60 5 \, 0 \$1 65;
#X obj 108 69 inlet;
#X obj 125 209 outlet~;
#X connect 0 0 1 0;
#X connect 0 0 1 1;
#X connect 1 0 4 0;
#X connect 2 0 0 0;
#X connect 3 0 2 0;
#X restore 51 502 pd vol_env;
#N canvas 0 23 450 300 pitch_env 0;
#X obj 37 37 inlet;
#X obj 33 107 vline~;
#X obj 36 222 mtof~;
#X msg 36 73 1 \, 0.5 5 \, 0 \$1 5;
#X obj 33 155 *~ 80;
#X obj 33 176 +~ 29;
#X obj 33 128 *~;
#X obj 36 243 outlet~;
#X connect 0 0 3 0;
#X connect 1 0 6 0;
#X connect 1 0 6 1;
#X connect 2 0 7 0;
#X connect 3 0 1 0;
#X connect 4 0 5 0;
#X connect 5 0 2 0;
#X connect 6 0 4 0;
#X restore 221 247 pd pitch_env;
#X connect 0 0 16 1;
#X connect 2 0 4 1;
#X connect 4 0 5 0;
#X connect 5 0 7 0;
#X connect 6 0 16 0;
#X connect 7 0 11 0;
#X connect 8 0 11 0;
#X connect 9 0 10 1;
#X connect 10 0 11 1;
#X connect 11 1 12 1;
#X connect 12 0 26 0;
#X connect 13 0 12 1;
#X connect 14 0 15 1;
#X connect 15 0 13 0;
#X connect 16 0 28 0;
#X connect 16 0 29 0;
#X connect 17 0 6 0;
#X connect 19 0 0 0;
#X connect 21 0 2 0;
#X connect 24 0 9 0;
#X connect 27 0 14 0;
#X connect 28 0 12 0;
#X connect 29 0 4 0;
#X connect 29 0 10 0;
#X connect 29 0 15 0;
