#N canvas 0 23 1440 855 12;
#X floatatom 378 489 5 0 0 0 - - -;
#X floatatom 480 543 5 0 0 0 - - -;
#X obj 338 599 *~ 1;
#X obj 338 620 phasor~;
#X obj 317 471 bng 15 250 50 0 empty empty empty 17 7 0 10 -262144
-1 -1;
#X obj 338 640 expr~ if ($v1 > 0.5 \, 0 \, 1);
#X obj 370 669 noise~;
#X floatatom 595 541 5 0 0 0 - - -;
#X obj 444 611 *~ 1.5;
#X obj 341 712 vcf~ 0.5;
#X obj 303 754 *~;
#X obj 462 733 osc~;
#X floatatom 723 497 5 0 0 0 - - -;
#X obj 461 702 *~ 1;
#X obj 321 493 f 250;
#X obj 291 443 inlet;
#X text 287 423 trig;
#X text 361 467 decay time;
#X text 468 519 pitchScale;
#X text 576 518 filterScale;
#X text 718 475 sineVol;
#N canvas 0 23 450 300 vol_env 0;
#X obj 125 167 vline~;
#X obj 125 188 *~;
#X msg 115 115 0.5 \, 1 5 \, 0.5 60 5 \, 0 \$1 65;
#X obj 108 69 inlet;
#X obj 125 209 outlet~;
#X connect 0 0 1 0;
#X connect 0 0 1 1;
#X connect 1 0 4 0;
#X connect 2 0 0 0;
#X connect 3 0 2 0;
#X restore 156 700 pd vol_env;
#N canvas 0 23 450 300 pitch_env 0;
#X obj 37 37 inlet;
#X obj 33 107 vline~;
#X obj 36 222 mtof~;
#X msg 36 73 1 \, 0.5 5 \, 0 \$1 5;
#X obj 33 155 *~ 80;
#X obj 33 176 +~ 29;
#X obj 33 128 *~;
#X obj 36 243 outlet~;
#X connect 0 0 3 0;
#X connect 1 0 6 0;
#X connect 1 0 6 1;
#X connect 2 0 7 0;
#X connect 3 0 1 0;
#X connect 4 0 5 0;
#X connect 5 0 2 0;
#X connect 6 0 4 0;
#X restore 325 538 pd pitch_env;
#X obj 122 107 hradio 15 1 0 5 empty empty Kick -16 0 0 10 -228856
-1 -1 0;
#X obj 194 237 i 250;
#X obj 236 237 f 1;
#X obj 264 237 f 1.5;
#X obj 307 236 f 1;
#X obj 538 223 f 1.5;
#X obj 580 223 f 1;
#X obj 236 285 f 1.5;
#X obj 453 224 i 150;
#X obj 496 223 f 0.5;
#X obj 6 231 i 450;
#X obj 47 231 f 0.25;
#X obj 96 231 0.5;
#X obj 124 230 1;
#X obj 149 285 i 50;
#X obj 187 285 f 2.25;
#X obj 278 285 f 0.8;
#X obj 350 271 i 1500;
#X obj 400 271 f 0.5;
#X obj 443 270 f 0.5;
#X obj 486 269 f 0.5;
#X obj 457 191 t b;
#X obj 13 201 t b;
#X obj 56 1 loadbang;
#X obj 148 254 t b;
#X obj 200 204 t b;
#X obj 380 235 t b;
#X obj 94 134 select 0 1 2 3 4;
#X obj 303 812 s~ kick;
#X obj 211 106 hsl 80 15 0 1 0 0 empty empty empty -2 -8 0 10 -232576
-1 -1 3900 1;
#X obj 300 783 *~ 0.5;
#X obj 205 69 f 0.5;
#X connect 0 0 14 1;
#X connect 1 0 2 1;
#X connect 2 0 3 0;
#X connect 3 0 5 0;
#X connect 4 0 14 0;
#X connect 5 0 9 0;
#X connect 6 0 9 0;
#X connect 7 0 8 1;
#X connect 8 0 9 1;
#X connect 9 1 10 1;
#X connect 10 0 53 0;
#X connect 11 0 10 1;
#X connect 12 0 13 1;
#X connect 13 0 11 0;
#X connect 14 0 21 0;
#X connect 14 0 22 0;
#X connect 15 0 4 0;
#X connect 21 0 10 0;
#X connect 22 0 2 0;
#X connect 22 0 8 0;
#X connect 22 0 13 0;
#X connect 23 0 50 0;
#X connect 24 0 0 0;
#X connect 25 0 1 0;
#X connect 26 0 7 0;
#X connect 27 0 12 0;
#X connect 28 0 7 0;
#X connect 29 0 12 0;
#X connect 30 0 7 0;
#X connect 31 0 0 0;
#X connect 32 0 1 0;
#X connect 33 0 0 0;
#X connect 34 0 1 0;
#X connect 35 0 7 0;
#X connect 36 0 12 0;
#X connect 37 0 0 0;
#X connect 38 0 1 0;
#X connect 39 0 12 0;
#X connect 40 0 0 0;
#X connect 41 0 1 0;
#X connect 42 0 7 0;
#X connect 43 0 12 0;
#X connect 44 0 31 0;
#X connect 44 0 32 0;
#X connect 44 0 28 0;
#X connect 44 0 29 0;
#X connect 45 0 33 0;
#X connect 45 0 34 0;
#X connect 45 0 35 0;
#X connect 45 0 36 0;
#X connect 46 0 45 0;
#X connect 46 0 54 0;
#X connect 47 0 37 0;
#X connect 47 0 38 0;
#X connect 47 0 30 0;
#X connect 47 0 39 0;
#X connect 48 0 24 0;
#X connect 48 0 25 0;
#X connect 48 0 26 0;
#X connect 48 0 27 0;
#X connect 49 0 40 0;
#X connect 49 0 41 0;
#X connect 49 0 42 0;
#X connect 49 0 43 0;
#X connect 50 0 45 0;
#X connect 50 1 47 0;
#X connect 50 2 48 0;
#X connect 50 3 49 0;
#X connect 50 4 44 0;
#X connect 52 0 53 1;
#X connect 53 0 51 0;
#X connect 54 0 52 0;
#X coords 0 -1 1 1 200 25 2 100 100;
