#N canvas 232 48 1065 737 12;
#X obj 200 255 expr (11 -$i1) + (12 * $i2);
#X obj 227 260 t b, f 4;
#X obj 199 127 mod 12;
#X obj 50 130 div 12;
#X text 247 128 note;
#X text -3 132 octave;
#X obj 210 285 i;
#X obj 298 104 expr 11 - $i1;
#X obj 100 66 change;
#X obj 101 101 cnv 15 40 160 empty empty empty 20 12 0 14 -228856 -66577
0;
#X obj 114 124 vradio 10 1 0 12 empty empty empty 0 -8 0 10 -262144
-1 -1 2;
#X obj 105 247 hradio 10 1 0 3 empty empty empty 0 -8 0 10 -262144
-1 -1 0;
#X floatatom 102 101 5 0 0 0 - - -;
#X obj 109 345 outlet;
#X connect 0 0 6 0;
#X connect 1 0 0 0;
#X connect 2 0 7 0;
#X connect 3 0 11 0;
#X connect 6 0 8 0;
#X connect 6 0 13 0;
#X connect 7 0 10 0;
#X connect 8 0 12 0;
#X connect 10 0 0 0;
#X connect 10 0 1 0;
#X connect 11 0 0 1;
#X connect 11 0 1 0;
#X connect 12 0 3 0;
#X connect 12 0 2 0;
#X coords 0 -1 1 1 40 164 2 100 100;
