#N canvas 299 254 843 300 12;
#X obj 92 10 tgl 15 0 empty empty empty 17 7 0 10 -262144 -1 -1 1 1
;
#X obj 63 192 select 1;
#X obj 134 10 tgl 15 0 empty empty empty 17 7 0 10 -262144 -1 -1 0
1;
#X obj 96 167 select 1;
#X obj 177 10 tgl 15 0 empty empty empty 17 7 0 10 -262144 -1 -1 0
1;
#X obj 148 195 select 1;
#X obj 219 10 tgl 15 0 empty empty empty 17 7 0 10 -262144 -1 -1 0
1;
#X obj 176 166 select 1;
#X obj 259 10 tgl 15 0 empty empty empty 17 7 0 10 -262144 -1 -1 1
1;
#X obj 230 191 select 1;
#X obj 301 10 tgl 15 0 empty empty empty 17 7 0 10 -262144 -1 -1 0
1;
#X obj 263 166 select 1;
#X obj 344 10 tgl 15 0 empty empty empty 17 7 0 10 -262144 -1 -1 0
1;
#X obj 315 194 select 1;
#X obj 386 10 tgl 15 0 empty empty empty 17 7 0 10 -262144 -1 -1 0
1;
#X obj 343 165 select 1;
#X obj 430 10 tgl 15 0 empty empty empty 17 7 0 10 -262144 -1 -1 1
1;
#X obj 401 193 select 1;
#X obj 472 10 tgl 15 0 empty empty empty 17 7 0 10 -262144 -1 -1 0
1;
#X obj 434 168 select 1;
#X obj 515 10 tgl 15 0 empty empty empty 17 7 0 10 -262144 -1 -1 0
1;
#X obj 486 196 select 1;
#X obj 557 10 tgl 15 0 empty empty empty 17 7 0 10 -262144 -1 -1 0
1;
#X obj 514 167 select 1;
#X obj 597 10 tgl 15 0 empty empty empty 17 7 0 10 -262144 -1 -1 1
1;
#X obj 568 192 select 1;
#X obj 639 10 tgl 15 0 empty empty empty 17 7 0 10 -262144 -1 -1 0
1;
#X obj 601 167 select 1;
#X obj 682 10 tgl 15 0 empty empty empty 17 7 0 10 -262144 -1 -1 0
1;
#X obj 653 195 select 1;
#X obj 724 10 tgl 15 0 empty empty empty 17 7 0 10 -262144 -1 -1 0
1;
#X obj 681 166 select 1;
#X obj 394 275 outlet;
#X obj 186 66 select 0 1 2 3 4 5 6 7 8 9 10 11 12 13 14 15;
#X obj 57 116 f;
#X obj 99 117 f;
#X obj 143 117 f;
#X obj 185 118 f;
#X obj 228 119 f;
#X obj 269 117 f;
#X obj 313 117 f;
#X obj 355 118 f;
#X obj 395 116 f;
#X obj 437 117 f;
#X obj 481 117 f;
#X obj 523 118 f;
#X obj 565 116 f;
#X obj 607 117 f;
#X obj 651 117 f;
#X obj 693 118 f;
#X obj 394 242 t b;
#X text 55 34 step 0 .. 15;
#X obj 8 13 r r_tempoms;
#X connect 0 0 34 1;
#X connect 1 0 50 0;
#X connect 2 0 35 1;
#X connect 3 0 50 0;
#X connect 4 0 36 1;
#X connect 5 0 50 0;
#X connect 6 0 37 1;
#X connect 7 0 50 0;
#X connect 8 0 38 1;
#X connect 9 0 50 0;
#X connect 10 0 39 1;
#X connect 11 0 50 0;
#X connect 12 0 40 1;
#X connect 13 0 50 0;
#X connect 14 0 41 1;
#X connect 15 0 50 0;
#X connect 16 0 42 1;
#X connect 17 0 50 0;
#X connect 18 0 43 1;
#X connect 19 0 50 0;
#X connect 20 0 44 1;
#X connect 21 0 50 0;
#X connect 22 0 45 1;
#X connect 23 0 50 0;
#X connect 24 0 46 1;
#X connect 25 0 50 0;
#X connect 26 0 47 1;
#X connect 27 0 50 0;
#X connect 28 0 48 1;
#X connect 29 0 50 0;
#X connect 30 0 49 1;
#X connect 31 0 50 0;
#X connect 33 0 34 0;
#X connect 33 1 35 0;
#X connect 33 2 36 0;
#X connect 33 3 37 0;
#X connect 33 4 38 0;
#X connect 33 5 39 0;
#X connect 33 6 40 0;
#X connect 33 7 41 0;
#X connect 33 8 42 0;
#X connect 33 9 43 0;
#X connect 33 10 44 0;
#X connect 33 11 45 0;
#X connect 33 12 46 0;
#X connect 33 13 47 0;
#X connect 33 14 48 0;
#X connect 33 15 49 0;
#X connect 34 0 1 0;
#X connect 35 0 3 0;
#X connect 36 0 5 0;
#X connect 37 0 7 0;
#X connect 38 0 9 0;
#X connect 39 0 11 0;
#X connect 40 0 13 0;
#X connect 41 0 15 0;
#X connect 42 0 17 0;
#X connect 43 0 19 0;
#X connect 44 0 21 0;
#X connect 45 0 23 0;
#X connect 46 0 25 0;
#X connect 47 0 27 0;
#X connect 48 0 29 0;
#X connect 49 0 31 0;
#X connect 50 0 32 0;
#X connect 52 0 33 0;
#X coords 0 -1 1 1 650 20 2 90 8;
