#N canvas 707 255 589 410 12;
#X obj 114 127 vsl 15 128 0 127 0 0 empty empty empty 0 -9 0 10 -262144
-1 -1 6500 1;
#X obj 101 73 change;
#X floatatom 102 102 5 0 0 0 - - -;
#X obj 100 288 t i b;
#X obj 106 318 i;
#X obj 106 350 outlet;
#X text 45 31 A slider/number combi which can be used to set a value
from 0-127;
#X connect 0 0 3 0;
#X connect 1 0 2 0;
#X connect 2 0 0 0;
#X connect 3 0 4 1;
#X connect 3 1 4 0;
#X connect 4 0 1 0;
#X connect 4 0 5 0;
#X coords 0 -1 1 1 40 167 2 100 100;
