#N canvas 0 23 1440 855 12;
#X obj 101 103 midinoteselector;
#X obj 143 103 midinoteselector;
#X obj 186 103 midinoteselector;
#X obj 228 103 midinoteselector;
#X obj 270 103 midinoteselector;
#X obj 312 103 midinoteselector;
#X obj 355 103 midinoteselector;
#X obj 397 103 midinoteselector;
#X obj 439 103 midinoteselector;
#X obj 481 103 midinoteselector;
#X obj 524 103 midinoteselector;
#X obj 566 103 midinoteselector;
#X obj 608 103 midinoteselector;
#X obj 650 103 midinoteselector;
#X obj 693 103 midinoteselector;
#X obj 735 103 midinoteselector;
#X text 128 0 step selector 0 .. 15;
#X obj 69 286 select 0 1 2 3 4 5 6 7 8 9 10 11 12 13 14 15;
#X obj 102 352 f;
#X obj 144 353 f;
#X obj 188 353 f;
#X obj 230 354 f;
#X obj 272 352 f;
#X obj 314 353 f;
#X obj 358 353 f;
#X obj 400 354 f;
#X obj 440 352 f;
#X obj 482 353 f;
#X obj 526 353 f;
#X obj 568 354 f;
#X obj 610 352 f;
#X obj 652 353 f;
#X obj 696 353 f;
#X obj 738 354 f;
#X obj 438 469 outlet;
#X obj 39 16 r r_tempoms;
#X connect 0 0 18 1;
#X connect 1 0 19 1;
#X connect 2 0 20 1;
#X connect 3 0 21 1;
#X connect 4 0 22 1;
#X connect 5 0 23 1;
#X connect 6 0 24 1;
#X connect 7 0 25 1;
#X connect 8 0 26 1;
#X connect 9 0 27 1;
#X connect 10 0 28 1;
#X connect 11 0 29 1;
#X connect 12 0 30 1;
#X connect 13 0 31 1;
#X connect 14 0 32 1;
#X connect 15 0 33 1;
#X connect 17 0 18 0;
#X connect 17 1 19 0;
#X connect 17 2 20 0;
#X connect 17 3 21 0;
#X connect 17 4 22 0;
#X connect 17 5 23 0;
#X connect 17 6 24 0;
#X connect 17 7 25 0;
#X connect 17 8 26 0;
#X connect 17 9 27 0;
#X connect 17 10 28 0;
#X connect 17 11 29 0;
#X connect 17 12 30 0;
#X connect 17 13 31 0;
#X connect 17 14 32 0;
#X connect 17 15 33 0;
#X connect 18 0 34 0;
#X connect 19 0 34 0;
#X connect 20 0 34 0;
#X connect 21 0 34 0;
#X connect 22 0 34 0;
#X connect 23 0 34 0;
#X connect 24 0 34 0;
#X connect 25 0 34 0;
#X connect 26 0 34 0;
#X connect 27 0 34 0;
#X connect 28 0 34 0;
#X connect 29 0 34 0;
#X connect 30 0 34 0;
#X connect 31 0 34 0;
#X connect 32 0 34 0;
#X connect 33 0 34 0;
#X connect 35 0 17 0;
#X coords 0 -1 1 1 675 170 1 100 100;
