#N canvas 0 23 450 300 12;
#X obj 112 64 inlet;
#X obj 172 63 inlet;
#X obj 112 206 outlet;
#X obj 112 166 line;
#X text 113 41 note;
#X obj 231 65 loadbang;
#X text 166 42 portamento speed (ms);
#X obj 112 129 pack 0 0;
#X msg 215 104 0;
#X connect 0 0 7 0;
#X connect 1 0 7 1;
#X connect 3 0 2 0;
#X connect 5 0 8 0;
#X connect 7 0 3 0;
#X connect 8 0 7 1;
