#N canvas 326 151 960 487 12;
#X obj 105 103 midislider;
#X obj 148 103 midislider;
#X obj 192 104 midislider;
#X obj 235 104 midislider;
#X obj 277 104 midislider;
#X obj 320 104 midislider;
#X obj 364 105 midislider;
#X obj 407 105 midislider;
#X obj 451 104 midislider;
#X obj 494 104 midislider;
#X obj 538 105 midislider;
#X obj 581 105 midislider;
#X obj 623 105 midislider;
#X obj 666 105 midislider;
#X obj 710 106 midislider;
#X obj 753 106 midislider;
#X obj 69 289 select 0 1 2 3 4 5 6 7 8 9 10 11 12 13 14 15;
#X obj 153 330 i;
#X obj 194 329 i;
#X obj 239 330 i;
#X obj 280 328 i;
#X obj 328 329 i;
#X obj 369 328 i;
#X obj 414 329 i;
#X obj 451 332 i;
#X obj 499 333 i;
#X obj 540 332 i;
#X obj 585 333 i;
#X obj 626 331 i;
#X obj 674 332 i;
#X obj 715 331 i;
#X obj 760 332 i;
#X obj 51 58 inlet;
#X text 131 44 step 0 -15;
#X obj 414 420 outlet;
#X obj 105 329 i;
#X connect 0 0 35 1;
#X connect 1 0 17 1;
#X connect 2 0 18 1;
#X connect 3 0 19 1;
#X connect 4 0 20 1;
#X connect 5 0 21 1;
#X connect 6 0 22 1;
#X connect 7 0 23 1;
#X connect 8 0 24 1;
#X connect 9 0 25 1;
#X connect 10 0 26 1;
#X connect 11 0 27 1;
#X connect 12 0 28 1;
#X connect 13 0 29 1;
#X connect 14 0 30 1;
#X connect 15 0 31 1;
#X connect 16 0 35 0;
#X connect 16 1 17 0;
#X connect 16 2 18 0;
#X connect 16 3 19 0;
#X connect 16 4 20 0;
#X connect 16 5 21 0;
#X connect 16 6 22 0;
#X connect 16 7 23 0;
#X connect 16 8 24 0;
#X connect 16 9 25 0;
#X connect 16 10 26 0;
#X connect 16 11 27 0;
#X connect 16 12 28 0;
#X connect 16 13 29 0;
#X connect 16 14 30 0;
#X connect 16 15 31 0;
#X connect 17 0 34 0;
#X connect 18 0 34 0;
#X connect 19 0 34 0;
#X connect 20 0 34 0;
#X connect 21 0 34 0;
#X connect 22 0 34 0;
#X connect 23 0 34 0;
#X connect 24 0 34 0;
#X connect 25 0 34 0;
#X connect 26 0 34 0;
#X connect 27 0 34 0;
#X connect 28 0 34 0;
#X connect 29 0 34 0;
#X connect 30 0 34 0;
#X connect 31 0 34 0;
#X connect 32 0 16 0;
#X connect 35 0 34 0;
#X coords 0 -1 1 1 700 175 1 100 100;
