#N canvas 487 89 450 300 12;
#X obj 72 194 line~;
#X msg 42 157 1 5;
#X obj 85 127 delay 10;
#X obj 84 157 pack 0 100;
#X obj 41 23 inlet;
#X text 84 22 bang;
#X obj 73 227 pow~ 2;
#X obj 138 23 inlet;
#X obj 234 20 inlet;
#X text 178 20 delay;
#X text 274 18 decay;
#X obj 129 63 t b f;
#X obj 203 63 t b f;
#X obj 135 93 f 10;
#X obj 203 94 f 100;
#X obj 74 262 outlet;
#X connect 0 0 6 0;
#X connect 1 0 0 0;
#X connect 2 0 3 0;
#X connect 3 0 0 0;
#X connect 4 0 1 0;
#X connect 4 0 2 0;
#X connect 6 0 15 0;
#X connect 7 0 11 0;
#X connect 8 0 12 0;
#X connect 11 0 13 0;
#X connect 11 1 13 1;
#X connect 12 0 14 0;
#X connect 12 1 14 1;
#X connect 13 0 2 1;
#X connect 14 0 3 1;
