#N canvas 509 202 492 477 12;
#X obj 207 202 freeverb~;
#X obj 125 135 inlet~;
#X obj 194 144 f 0;
#X obj 281 133 expr 1 - $f1;
#X obj 105 105 hsl 85 15 0 1 0 0 empty empty empty -2 -8 0 10 -262144
-1 -1 0 1;
#X obj 135 242 *~;
#X obj 206 238 *~;
#X obj 192 354 outlet~;
#X obj 203 295 +~;
#X obj 250 242 *~;
#X obj 247 299 +~;
#X obj 255 352 outlet~;
#X connect 0 0 6 0;
#X connect 0 0 9 0;
#X connect 1 0 5 0;
#X connect 1 0 0 0;
#X connect 2 0 5 1;
#X connect 3 0 6 1;
#X connect 3 0 9 1;
#X connect 4 0 2 0;
#X connect 4 0 3 0;
#X connect 5 0 8 0;
#X connect 5 0 10 0;
#X connect 6 0 8 0;
#X connect 8 0 7 0;
#X connect 9 0 10 0;
#X connect 10 0 11 0;
#X coords 0 -1 1 1 95 25 1 100 100;
