#N canvas 0 23 796 613 12;
#X obj 439 498 *~ 0.25;
#N canvas 0 23 746 614 tr808-snare 0;
#X obj 247 36 inlet;
#X obj 174 410 vcf~ 3;
#X obj 205 109 noise~;
#X obj 196 164 *~;
#X floatatom 296 38 5 0 0 1 Decay - -;
#X obj 175 442 hip~ 50;
#X obj 318 271 +~ 100;
#X obj 317 244 *~ 8000;
#X obj 244 410 vcf~ 5;
#X obj 369 244 *~ 5000;
#X obj 373 272 +~ 200;
#X obj 296 15 inlet;
#X obj 175 463 outlet~;
#X obj 483 199 inlet;
#X obj 483 220 * 0.6;
#N canvas 381 209 450 300 vol_env 0;
#X obj 37 37 inlet;
#X obj 29 204 *~;
#X obj 29 225 outlet~;
#X obj 38 155 vline~;
#X msg 37 58 1 0.5 \, 0 \$1 0.5;
#X connect 0 0 4 0;
#X connect 1 0 2 0;
#X connect 3 0 1 0;
#X connect 3 0 1 1;
#X connect 4 0 3 0;
#X restore 132 82 pd vol_env;
#X obj 247 57 f 250;
#N canvas 381 209 450 300 cutoff_env 0;
#X obj 37 37 inlet;
#X obj 29 204 *~;
#X obj 29 225 outlet~;
#X obj 38 155 vline~;
#X msg 37 58 1 0.5 \, 0 \$1 0.5;
#X connect 0 0 4 0;
#X connect 1 0 2 0;
#X connect 3 0 1 0;
#X connect 3 0 1 1;
#X connect 4 0 3 0;
#X restore 400 172 pd cutoff_env;
#X obj 398 137 * 2;
#X text 520 204 Noise;
#N canvas 0 23 450 300 FM_osc 0;
#X obj 63 166 osc~ 150;
#X obj 68 135 +~;
#X obj 60 92 sig~ 150;
#X obj 134 70 osc~ 50;
#X obj 134 91 *~ 30;
#X obj 64 199 *~;
#X obj 220 143 *~;
#X obj 225 109 inlet~;
#X obj 64 220 outlet~;
#X connect 0 0 5 0;
#X connect 1 0 0 0;
#X connect 2 0 1 0;
#X connect 3 0 4 0;
#X connect 4 0 1 1;
#X connect 5 0 8 0;
#X connect 6 0 5 1;
#X connect 7 0 6 0;
#X connect 7 0 6 1;
#X restore 100 177 pd FM_osc;
#X obj 210 138 hip~ 100;
#X connect 0 0 16 0;
#X connect 1 0 5 0;
#X connect 2 0 21 0;
#X connect 3 0 1 0;
#X connect 4 0 16 1;
#X connect 5 0 12 0;
#X connect 6 0 1 1;
#X connect 7 0 6 0;
#X connect 8 0 5 0;
#X connect 9 0 10 0;
#X connect 10 0 8 1;
#X connect 11 0 4 0;
#X connect 13 0 14 0;
#X connect 13 0 7 1;
#X connect 14 0 9 1;
#X connect 15 0 3 0;
#X connect 15 0 20 0;
#X connect 16 0 15 0;
#X connect 16 0 18 0;
#X connect 17 0 7 0;
#X connect 17 0 9 0;
#X connect 18 0 17 0;
#X connect 20 0 1 0;
#X connect 20 0 8 0;
#X connect 21 0 3 1;
#X restore 401 459 pd tr808-snare;
#X floatatom 436 431 5 0 0 1 Decay - -;
#X obj 482 226 vsl 15 128 50 2000 0 0 empty tr808sn_decay empty 0 -9
0 10 -262144 -1 -1 2931 1;
#X floatatom 516 436 5 0 0 1 Noise - -;
#X obj 561 235 vsl 15 128 100 10000 1 0 empty tr808sn_noise empty 0
-9 0 10 -262144 -1 -1 10788 1;
#X obj 391 231 inlet;
#X text 436 230 bang;
#X obj 266 318 i 200;
#X obj 311 317 i 300;
#X obj 293 290 t b;
#X obj 314 161 t b;
#X obj 290 348 t b;
#X obj 306 226 t b;
#X obj 286 188 i 500;
#X obj 332 188 i 5000;
#X obj 278 254 i 300;
#X obj 324 253 i 6000;
#X obj 263 376 i 800;
#X obj 308 375 i 3000;
#X obj 297 42 loadbang;
#X obj 104 176 select 0 1 2 3;
#X obj 122 106 hradio 15 1 0 4 empty empty Snare -18 0 0 10 -228856
-1 -1 1;
#X obj 434 560 s~ snare;
#X obj 211 106 hsl 80 15 0 1 0 0 empty empty empty -2 -8 0 10 -232576
-1 -1 2500 1;
#X obj 297 68 f 0.5;
#X connect 0 0 23 0;
#X connect 1 0 0 0;
#X connect 2 0 1 1;
#X connect 3 0 2 0;
#X connect 4 0 1 2;
#X connect 5 0 4 0;
#X connect 6 0 1 0;
#X connect 8 0 2 0;
#X connect 9 0 4 0;
#X connect 10 0 8 0;
#X connect 10 0 9 0;
#X connect 11 0 14 0;
#X connect 11 0 15 0;
#X connect 12 0 18 0;
#X connect 12 0 19 0;
#X connect 13 0 16 0;
#X connect 13 0 17 0;
#X connect 14 0 2 0;
#X connect 15 0 4 0;
#X connect 16 0 2 0;
#X connect 17 0 4 0;
#X connect 18 0 2 0;
#X connect 19 0 4 0;
#X connect 20 0 11 0;
#X connect 20 0 25 0;
#X connect 21 0 11 0;
#X connect 21 1 13 0;
#X connect 21 2 10 0;
#X connect 21 3 12 0;
#X connect 22 0 21 0;
#X connect 24 0 0 1;
#X connect 25 0 24 0;
#X coords 0 -1 1 1 200 25 2 100 100;
