#N canvas 437 97 899 452 12;
#X text 261 44 base fq;
#X obj 205 164 phasor~;
#X obj 90 305 expr~ $v1 > $v2;
#X obj 202 203 cnv 15 88 30 empty empty empty 20 12 0 14 -128992 -66577
0;
#X obj 207 217 hsl 80 15 0.01 0.99 0 0 empty empty empty -2 -8 0 10
-262130 -1 -1 1700 1;
#X obj 99 60 loadbang;
#X obj 136 99 f 0.5;
#X obj 345 230 expr~ $v1 > $v2;
#X obj 284 164 phasor~;
#X obj 410 93 t b f;
#X obj 395 43 f 0;
#X obj 190 76 + 0;
#X obj 299 74 - 0;
#X obj 214 377 s int_sqrwide;
#X obj 706 267 r int_sqrwide;
#X obj 203 234 cnv 15 85 30 empty empty empty 20 12 0 14 -261682 -66577
0;
#X text 227 228 wide;
#X obj 435 339 *~ 0.5;
#X obj 206 247 hsl 80 15 0 1 0 0 empty empty empty -2 -8 0 10 -262130
-1 -1 1300 1;
#X text 207 200 pulse width;
#X obj 184 45 r mainfreq;
#X obj 435 370 s~ sqrout;
#X obj 226 86 r sqrport;
#X obj 305 128 portamento;
#X obj 196 128 portamento;
#X obj 179 219 vsl 15 40 0 0.5 0 0 sqrvolctrl squarevol SqrVol -12
-9 0 10 -262130 -1 -1 0 1;
#X obj 305 218 vsl 15 40 0 100 0 0 sqrport empty SqrPort -15 -9 0 10
-262130 -1 -1 0 1;
#X connect 1 0 2 0;
#X connect 2 0 17 0;
#X connect 4 0 2 1;
#X connect 4 0 7 1;
#X connect 5 0 6 0;
#X connect 6 0 4 0;
#X connect 7 0 17 0;
#X connect 8 0 7 0;
#X connect 9 0 10 0;
#X connect 9 1 10 1;
#X connect 10 0 11 1;
#X connect 10 0 12 1;
#X connect 11 0 24 0;
#X connect 12 0 23 0;
#X connect 14 0 9 0;
#X connect 17 0 21 0;
#X connect 18 0 13 0;
#X connect 20 0 11 0;
#X connect 20 0 12 0;
#X connect 22 0 24 1;
#X connect 22 0 23 1;
#X connect 23 0 8 0;
#X connect 24 0 1 0;
#X coords 0 -1 1 1 160 66 2 165 200;
