#N canvas 334 581 899 452 12;
#X text 175 5 base fq;
#X obj 113 66 phasor~;
#X obj -19 135 expr~ $v1 > $v2;
#X obj 100 102 cnv 15 88 30 empty empty empty 20 12 0 14 -128992 -66577
0;
#X obj 105 116 hsl 80 15 0.01 0.99 0 0 empty empty empty -2 -8 0 10
-262144 -1 -1 7450 1;
#X obj 13 21 loadbang;
#X obj 50 60 f 0.5;
#X obj 203 140 expr~ $v1 > $v2;
#X obj 211 68 phasor~;
#X obj 324 54 t b f;
#X obj 309 4 f 0;
#X obj 104 37 + 0;
#X obj 213 35 - 0;
#X obj 71 232 s int_sqrwide;
#X obj 604 166 r int_sqrwide;
#X obj 101 133 cnv 15 85 30 empty empty empty 20 12 0 14 -261682 -66577
0;
#X text 125 127 wide;
#X obj 333 238 *~ 0.5;
#X obj 333 269 outlet~;
#X obj 104 146 hsl 80 15 0 1 0 0 empty empty empty -2 -8 0 10 -262144
-1 -1 1400 1;
#X text 105 99 pulse width;
#X obj 98 6 r mainfreq;
#X connect 1 0 2 0;
#X connect 2 0 17 0;
#X connect 4 0 2 1;
#X connect 4 0 7 1;
#X connect 5 0 6 0;
#X connect 6 0 4 0;
#X connect 7 0 17 0;
#X connect 8 0 7 0;
#X connect 9 0 10 0;
#X connect 9 1 10 1;
#X connect 10 0 11 1;
#X connect 10 0 12 1;
#X connect 11 0 1 0;
#X connect 12 0 8 0;
#X connect 14 0 9 0;
#X connect 17 0 18 0;
#X connect 19 0 13 0;
#X connect 21 0 11 0;
#X connect 21 0 12 0;
#X coords 0 -1 1 1 88 64 2 100 100;
