#N canvas 0 23 1440 855 12;
#X obj 234 324 + 0;
#X obj 355 325 - 0;
#X obj 233 352 phasor~;
#X obj 355 352 phasor~;
#X obj 14 140 s phasorwide;
#X obj 267 278 r phasorwide;
#X obj 275 218 r mainfreq;
#X obj 105 117 hsl 80 15 0 1 0 0 empty empty empty -2 -8 0 10 -262144
-1 -1 5600 1;
#X obj 293 409 *~ 0.5;
#X obj 295 446 outlet~;
#X text 120 99 Saw Wide;
#X connect 0 0 2 0;
#X connect 1 0 3 0;
#X connect 2 0 8 0;
#X connect 3 0 8 0;
#X connect 5 0 0 1;
#X connect 5 0 1 1;
#X connect 6 0 0 0;
#X connect 6 0 1 0;
#X connect 7 0 4 0;
#X connect 8 0 9 0;
#X coords 0 -1 1 1 88 35 2 100 100;
